<svg xmlns="http://www.w3.org/2000/svg" viewBox="0 0 128 128" width="128" height="128" role="img" aria-labelledby="title" focusable="false">
  <title id="title">FlavorGraph logo</title>
  <defs>
    <linearGradient id="g" x1="0" x2="1" y1="0" y2="1">
      <stop offset="0%" stop-color="#06b6d4"/>
      <stop offset="100%" stop-color="#22d3ee"/>
    </linearGradient>
  </defs>
  <rect width="128" height="128" rx="20" fill="#071022"/>
  <!-- stylized spoon + nodes graph -->
  <g transform="translate(14,14)">
    <!-- graph lines -->
    <path d="M18 30 C30 10, 60 10, 72 30" fill="none" stroke="url(#g)" stroke-width="4" stroke-linecap="round" stroke-linejoin="round" opacity="0.95"/>
    <path d="M10 50 C28 60, 48 60, 66 50" fill="none" stroke="rgba(255,255,255,0.06)" stroke-width="3" stroke-linecap="round" stroke-linejoin="round"/>
    <!-- nodes -->
    <circle cx="18" cy="30" r="5" fill="#0b1220" stroke="url(#g)" stroke-width="3"/>
    <circle cx="45" cy="20" r="6" fill="#22d3ee" opacity="0.95"/>
    <circle cx="72" cy="30" r="5" fill="#0b1220" stroke="url(#g)" stroke-width="3"/>
    <!-- spoon shape on the right -->
    <g transform="translate(56,36) scale(0.9)">
      <path d="M24 4c6 2 6 8 4 14-2 6-8 10-14 12-6 2-10 0-12-4-2-4 0-8 4-10 4-2 10-2 14-6 4-4 6-8 4-12z" fill="rgba(255,255,255,0.08)"/>
      <path d="M22 6c4 1 4 5 3 9-1 4-6 7-10 9-4 1-7 0-9-3-1-3 0-6 3-8 3-2 7-2 10-4 3-2 4-5 3-7z" fill="url(#g)" opacity="0.98"/>
      <rect x="0" y="20" width="30" height="6" rx="3" fill="#0b1220" transform="rotate(-18 15 23)"/>
    </g>
  </g>
</svg>